<svg width="30" height="30" viewBox="0 0 30 30" fill="none" xmlns="http://www.w3.org/2000/svg">
<path fill-rule="evenodd" clip-rule="evenodd" d="M14.7617 14.6289C14.624 14.8052 14.4894 14.9821 14.3577 15.1596C14.2592 14.9934 14.1583 14.8274 14.055 14.6617C10.2968 8.63089 4.84142 5.24301 1.87016 7.09462C-1.1011 8.94624 -0.463139 15.3362 3.29509 21.367C6.55909 26.6047 11.1032 29.8489 14.1883 29.3986C17.2016 29.3795 21.3921 26.735 24.7521 22.4346C29.1271 16.8352 30.4373 10.5485 27.6786 8.39305C24.9198 6.23756 19.1367 9.02946 14.7617 14.6289ZM14.2397 24.5852C17.394 24.5852 19.9511 21.659 19.9511 18.0495C19.9511 16.2689 19.3897 16.9468 18.4421 18.091C17.4687 19.2663 16.0878 20.9335 14.4895 20.9335C12.9388 20.9335 11.472 19.3642 10.3815 18.1973C9.25371 16.9906 8.52822 16.2144 8.52822 18.0495C8.52822 21.659 11.0853 24.5852 14.2397 24.5852Z" fill="#EA6C92"/>
<ellipse cx="14.6783" cy="7.42206" rx="5.71146" ry="6.53571" fill="#BBCEA8"/>
<ellipse cx="14.6783" cy="7.42206" rx="5.71146" ry="6.53571" fill="white" fill-opacity="0.5"/>
</svg>
