<svg width="68" height="54" viewBox="0 0 68 54" fill="none" xmlns="http://www.w3.org/2000/svg">
<path fill-rule="evenodd" clip-rule="evenodd" d="M34.4619 18.8203C34.1404 19.2318 33.826 19.6449 33.5187 20.0593C33.2886 19.6713 33.053 19.2837 32.8118 18.8968C24.0381 4.81772 11.3025 -3.09138 4.36595 1.23122C-2.57056 5.55392 -1.08121 20.4714 7.6925 34.5505C15.3124 46.778 25.9206 54.3517 33.123 53.3006C40.1575 53.2561 49.9406 47.0826 57.7847 37.043C67.9983 23.9709 71.0571 9.29452 64.6166 4.26252C58.1762 -0.769581 44.6755 5.74822 34.4619 18.8203ZM33.2424 28.3481C40.6063 28.3481 46.576 22.3784 46.576 15.0145C46.576 11.3819 45.2652 12.7649 43.053 15.0992C40.7805 17.4969 37.5569 20.8983 33.8255 20.8983C30.2053 20.8983 26.7812 17.6966 24.2353 15.3161C21.6025 12.8543 19.9088 11.2707 19.9088 15.0145C19.9088 22.3784 25.8784 28.3481 33.2424 28.3481Z" fill="#EA6C92"/>
</svg>
